# xmcd
#
# Track frame offsets:
#	150
#	16884
#	38546
#	52549
#	64046
#	79633
#	97122
#	115546
#	131630
#	157727
#	173129
#	191872
#	210267
#	232985
#	249070
#	267744
#
# Disc length: 3848
#
# Revision: 2
# Processed by: cddbd v1.5.1PL0 Copyright (c) Steve Scherf et al.
# Submitted via: audiograbber 1.83.01
# Normalized: r1:TDELIM( - )
#
DISCID=bc0f0610
DTITLE=Chartbusters Vol. 3 - 90's Country Disc 5
DYEAR=1900
DGENRE=Karaoke Country
TTITLE0=Toby Keith - How Do You Like Me Now?!
TTITLE1=Brad Paisley - He Didn't Have To Be
TTITLE2=Martina McBride - I Love You
TTITLE3=John Michael Montgomery - Hello L.O.V.E.
TTITLE4=Steve Wariner - I'm Already Taken
TTITLE5=She Daisy - I will... But
TTITLE6=Clay Walker - Live, Laugh, Love
TTITLE7=Montgomery Gentry - Lonely And Gone
TTITLE8=Martina McBride - Love's The Only House
TTITLE9=Montgomery Gentry - Hillbilly Shoes
TTITLE10=Doug Stone - Make Up In Love
TTITLE11=Sherrie' Austin - Never Been Kissed
TTITLE12=Tim McGraw - My Best Friend
TTITLE13=Brad Paisley - Me Neither
TTITLE14=Reba McEntire - One Honest Heart
TTITLE15=Tim Mcgraw - Please Remember Me
EXTD=
EXTT0=
EXTT1=
EXTT2=
EXTT3=
EXTT4=
EXTT5=
EXTT6=
EXTT7=
EXTT8=
EXTT9=
EXTT10=
EXTT11=
EXTT12=
EXTT13=
EXTT14=
EXTT15=
PLAYORDER=
